<?xml version="1.0" encoding="UTF-8" standalone="no"?><!DOCTYPE svg PUBLIC "-//W3C//DTD SVG 1.1//EN" "http://www.w3.org/Graphics/SVG/1.1/DTD/svg11.dtd"><!-- Generated by graphviz version 2.40.1 (20161225.0304)
 --><!-- Title: G Pages: 1 --><svg xmlns="http://www.w3.org/2000/svg" xmlns:xlink="http://www.w3.org/1999/xlink" width="357pt" height="980pt" viewBox="0.00 0.00 356.66 980.00">
<g id="graph0" class="graph" transform="scale(1 1) rotate(0) translate(4 976)">
<title>G</title>
<polygon fill="#ffffff" stroke="transparent" points="-4,4 -4,-976 352.6562,-976 352.6562,4 -4,4"/>
<!-- start -->
<g id="node1" class="node">
<title>start</title>
<ellipse fill="none" stroke="#000000" cx="169.1896" cy="-954" rx="27.8228" ry="18"/>
<text text-anchor="middle" x="169.1896" y="-949.8" font-family="Times,serif" font-size="14.00" fill="#000000">start</text>
</g>
<!-- Home -->
<g id="node2" class="node">
<title>Home</title>
<ellipse fill="none" stroke="#000000" cx="169.1896" cy="-882" rx="34.7709" ry="18"/>
<text text-anchor="middle" x="169.1896" y="-877.8" font-family="Times,serif" font-size="14.00" fill="#000000">Home</text>
</g>
<!-- start&#45;&gt;Home -->
<g id="edge1" class="edge">
<title>start-&gt;Home</title>
<path fill="none" stroke="#000000" d="M169.1896,-935.8314C169.1896,-928.131 169.1896,-918.9743 169.1896,-910.4166"/>
<polygon fill="#000000" stroke="#000000" points="172.6897,-910.4132 169.1896,-900.4133 165.6897,-910.4133 172.6897,-910.4132"/>
</g>
<!-- Occupation -->
<g id="node3" class="node">
<title>Occupation</title>
<ellipse fill="none" stroke="#000000" cx="103.1896" cy="-162" rx="55.5985" ry="18"/>
<text text-anchor="middle" x="103.1896" y="-157.8" font-family="Times,serif" font-size="14.00" fill="#000000">Occupation</text>
</g>
<!-- Home&#45;&gt;Occupation -->
<g id="edge2" class="edge">
<title>Home-&gt;Occupation</title>
<path fill="none" stroke="#000000" d="M158.4152,-864.551C143.1841,-838.174 117.1896,-786.1099 117.1896,-738 117.1896,-738 117.1896,-738 117.1896,-306 117.1896,-265.6868 111.6869,-219.322 107.5812,-190.3387"/>
<polygon fill="#000000" stroke="#000000" points="110.9988,-189.5197 106.0904,-180.1304 104.0723,-190.5313 110.9988,-189.5197"/>
</g>
<!-- Resume_Builder -->
<g id="node4" class="node">
<title>Resume_Builder</title>
<ellipse fill="none" stroke="#000000" cx="230.1896" cy="-810" rx="75.8817" ry="18"/>
<text text-anchor="middle" x="230.1896" y="-805.8" font-family="Times,serif" font-size="14.00" fill="#000000">Resume_Builder</text>
</g>
<!-- Home&#45;&gt;Resume_Builder -->
<g id="edge3" class="edge">
<title>Home-&gt;Resume_Builder</title>
<path fill="none" stroke="#000000" d="M183.3376,-865.3008C190.7616,-856.538 200.0208,-845.6091 208.3429,-835.7863"/>
<polygon fill="#000000" stroke="#000000" points="211.2584,-837.7595 215.0522,-827.8671 205.9175,-833.2345 211.2584,-837.7595"/>
</g>
<!-- Internship -->
<g id="node16" class="node">
<title>Internship</title>
<ellipse fill="none" stroke="#000000" cx="50.1896" cy="-90" rx="50.38" ry="18"/>
<text text-anchor="middle" x="50.1896" y="-85.8" font-family="Times,serif" font-size="14.00" fill="#000000">Internship</text>
</g>
<!-- Occupation&#45;&gt;Internship -->
<g id="edge15" class="edge">
<title>Occupation-&gt;Internship</title>
<path fill="none" stroke="#000000" d="M90.0885,-144.2022C83.7987,-135.6576 76.1423,-125.2564 69.2247,-115.859"/>
<polygon fill="#000000" stroke="#000000" points="71.8869,-113.5715 63.14,-107.593 66.2496,-117.7213 71.8869,-113.5715"/>
</g>
<!-- Jobs -->
<g id="node17" class="node">
<title>Jobs</title>
<ellipse fill="none" stroke="#000000" cx="146.1896" cy="-90" rx="28.4107" ry="18"/>
<text text-anchor="middle" x="146.1896" y="-85.8" font-family="Times,serif" font-size="14.00" fill="#000000">Jobs</text>
</g>
<!-- Occupation&#45;&gt;Jobs -->
<g id="edge16" class="edge">
<title>Occupation-&gt;Jobs</title>
<path fill="none" stroke="#000000" d="M113.8188,-144.2022C118.9452,-135.6186 125.1905,-125.1613 130.8229,-115.7303"/>
<polygon fill="#000000" stroke="#000000" points="133.8562,-117.4773 135.9788,-107.0972 127.8464,-113.8881 133.8562,-117.4773"/>
</g>
<!-- Personal_Information -->
<g id="node5" class="node">
<title>Personal_Information</title>
<ellipse fill="none" stroke="#000000" cx="241.1896" cy="-738" rx="95.485" ry="18"/>
<text text-anchor="middle" x="241.1896" y="-733.8" font-family="Times,serif" font-size="14.00" fill="#000000">Personal_Information</text>
</g>
<!-- Resume_Builder&#45;&gt;Personal_Information -->
<g id="edge4" class="edge">
<title>Resume_Builder-&gt;Personal_Information</title>
<path fill="none" stroke="#000000" d="M232.9654,-791.8314C234.1418,-784.131 235.5408,-774.9743 236.8482,-766.4166"/>
<polygon fill="#000000" stroke="#000000" points="240.326,-766.8272 238.3765,-756.4133 233.4063,-765.7699 240.326,-766.8272"/>
</g>
<!-- Objective -->
<g id="node6" class="node">
<title>Objective</title>
<ellipse fill="none" stroke="#000000" cx="245.1896" cy="-666" rx="48.652" ry="18"/>
<text text-anchor="middle" x="245.1896" y="-661.8" font-family="Times,serif" font-size="14.00" fill="#000000">Objective</text>
</g>
<!-- Personal_Information&#45;&gt;Objective -->
<g id="edge5" class="edge">
<title>Personal_Information-&gt;Objective</title>
<path fill="none" stroke="#000000" d="M242.199,-719.8314C242.6268,-712.131 243.1355,-702.9743 243.6109,-694.4166"/>
<polygon fill="#000000" stroke="#000000" points="247.1065,-694.592 244.1667,-684.4133 240.1173,-694.2037 247.1065,-694.592"/>
</g>
<!-- Education -->
<g id="node7" class="node">
<title>Education</title>
<ellipse fill="none" stroke="#000000" cx="246.1896" cy="-594" rx="50.3819" ry="18"/>
<text text-anchor="middle" x="246.1896" y="-589.8" font-family="Times,serif" font-size="14.00" fill="#000000">Education</text>
</g>
<!-- Objective&#45;&gt;Education -->
<g id="edge6" class="edge">
<title>Objective-&gt;Education</title>
<path fill="none" stroke="#000000" d="M245.442,-647.8314C245.5489,-640.131 245.6761,-630.9743 245.7949,-622.4166"/>
<polygon fill="#000000" stroke="#000000" points="249.2946,-622.4609 245.9339,-612.4133 242.2952,-622.3637 249.2946,-622.4609"/>
</g>
<!-- Work_Experience -->
<g id="node8" class="node">
<title>Work_Experience</title>
<ellipse fill="none" stroke="#000000" cx="246.1896" cy="-522" rx="81.0648" ry="18"/>
<text text-anchor="middle" x="246.1896" y="-517.8" font-family="Times,serif" font-size="14.00" fill="#000000">Work_Experience</text>
</g>
<!-- Education&#45;&gt;Work_Experience -->
<g id="edge7" class="edge">
<title>Education-&gt;Work_Experience</title>
<path fill="none" stroke="#000000" d="M246.1896,-575.8314C246.1896,-568.131 246.1896,-558.9743 246.1896,-550.4166"/>
<polygon fill="#000000" stroke="#000000" points="249.6897,-550.4132 246.1896,-540.4133 242.6897,-550.4133 249.6897,-550.4132"/>
</g>
<!-- Awards_and_Honors -->
<g id="node9" class="node">
<title>Awards_and_Honors</title>
<ellipse fill="none" stroke="#000000" cx="246.1896" cy="-450" rx="93.1852" ry="18"/>
<text text-anchor="middle" x="246.1896" y="-445.8" font-family="Times,serif" font-size="14.00" fill="#000000">Awards_and_Honors</text>
</g>
<!-- Work_Experience&#45;&gt;Awards_and_Honors -->
<g id="edge8" class="edge">
<title>Work_Experience-&gt;Awards_and_Honors</title>
<path fill="none" stroke="#000000" d="M246.1896,-503.8314C246.1896,-496.131 246.1896,-486.9743 246.1896,-478.4166"/>
<polygon fill="#000000" stroke="#000000" points="249.6897,-478.4132 246.1896,-468.4133 242.6897,-478.4133 249.6897,-478.4132"/>
</g>
<!-- Activities_or_Hobbies -->
<g id="node10" class="node">
<title>Activities_or_Hobbies</title>
<ellipse fill="none" stroke="#000000" cx="250.1896" cy="-378" rx="98.4333" ry="18"/>
<text text-anchor="middle" x="250.1896" y="-373.8" font-family="Times,serif" font-size="14.00" fill="#000000">Activities_or_Hobbies</text>
</g>
<!-- Awards_and_Honors&#45;&gt;Activities_or_Hobbies -->
<g id="edge9" class="edge">
<title>Awards_and_Honors-&gt;Activities_or_Hobbies</title>
<path fill="none" stroke="#000000" d="M247.199,-431.8314C247.6268,-424.131 248.1355,-414.9743 248.6109,-406.4166"/>
<polygon fill="#000000" stroke="#000000" points="252.1065,-406.592 249.1667,-396.4133 245.1173,-406.2037 252.1065,-406.592"/>
</g>
<!-- Skills -->
<g id="node11" class="node">
<title>Skills</title>
<ellipse fill="none" stroke="#000000" cx="252.1896" cy="-306" rx="33.0798" ry="18"/>
<text text-anchor="middle" x="252.1896" y="-301.8" font-family="Times,serif" font-size="14.00" fill="#000000">Skills</text>
</g>
<!-- Activities_or_Hobbies&#45;&gt;Skills -->
<g id="edge10" class="edge">
<title>Activities_or_Hobbies-&gt;Skills</title>
<path fill="none" stroke="#000000" d="M250.6943,-359.8314C250.9082,-352.131 251.1626,-342.9743 251.4003,-334.4166"/>
<polygon fill="#000000" stroke="#000000" points="254.899,-334.5066 251.6781,-324.4133 247.9017,-334.3122 254.899,-334.5066"/>
</g>
<!-- Reference -->
<g id="node12" class="node">
<title>Reference</title>
<ellipse fill="none" stroke="#000000" cx="255.1896" cy="-234" rx="50.3373" ry="18"/>
<text text-anchor="middle" x="255.1896" y="-229.8" font-family="Times,serif" font-size="14.00" fill="#000000">Reference</text>
</g>
<!-- Skills&#45;&gt;Reference -->
<g id="edge11" class="edge">
<title>Skills-&gt;Reference</title>
<path fill="none" stroke="#000000" d="M252.9467,-287.8314C253.2675,-280.131 253.649,-270.9743 254.0056,-262.4166"/>
<polygon fill="#000000" stroke="#000000" points="257.503,-262.5503 254.4224,-252.4133 250.509,-262.2589 257.503,-262.5503"/>
</g>
<!-- Finished_Resume -->
<g id="node13" class="node">
<title>Finished_Resume</title>
<ellipse fill="none" stroke="#000000" cx="257.1896" cy="-162" rx="80.4771" ry="18"/>
<text text-anchor="middle" x="257.1896" y="-157.8" font-family="Times,serif" font-size="14.00" fill="#000000">Finished_Resume</text>
</g>
<!-- Reference&#45;&gt;Finished_Resume -->
<g id="edge12" class="edge">
<title>Reference-&gt;Finished_Resume</title>
<path fill="none" stroke="#000000" d="M255.6943,-215.8314C255.9082,-208.131 256.1626,-198.9743 256.4003,-190.4166"/>
<polygon fill="#000000" stroke="#000000" points="259.899,-190.5066 256.6781,-180.4133 252.9017,-190.3122 259.899,-190.5066"/>
</g>
<!-- Suitable_Jobs -->
<g id="node14" class="node">
<title>Suitable_Jobs</title>
<ellipse fill="none" stroke="#000000" cx="257.1896" cy="-90" rx="64.8661" ry="18"/>
<text text-anchor="middle" x="257.1896" y="-85.8" font-family="Times,serif" font-size="14.00" fill="#000000">Suitable_Jobs</text>
</g>
<!-- Finished_Resume&#45;&gt;Suitable_Jobs -->
<g id="edge13" class="edge">
<title>Finished_Resume-&gt;Suitable_Jobs</title>
<path fill="none" stroke="#000000" d="M257.1896,-143.8314C257.1896,-136.131 257.1896,-126.9743 257.1896,-118.4166"/>
<polygon fill="#000000" stroke="#000000" points="260.6897,-118.4132 257.1896,-108.4133 253.6897,-118.4133 260.6897,-118.4132"/>
</g>
<!-- Apply_Now -->
<g id="node15" class="node">
<title>Apply_Now</title>
<ellipse fill="none" stroke="#000000" cx="146.1896" cy="-18" rx="58.554" ry="18"/>
<text text-anchor="middle" x="146.1896" y="-13.8" font-family="Times,serif" font-size="14.00" fill="#000000">Apply_Now</text>
</g>
<!-- Suitable_Jobs&#45;&gt;Apply_Now -->
<g id="edge14" class="edge">
<title>Suitable_Jobs-&gt;Apply_Now</title>
<path fill="none" stroke="#000000" d="M231.445,-73.3008C216.2065,-63.4164 196.7191,-50.7759 180.2228,-40.0756"/>
<polygon fill="#000000" stroke="#000000" points="181.7063,-36.866 171.4119,-34.3604 177.8969,-42.7387 181.7063,-36.866"/>
</g>
<!-- Internship&#45;&gt;Apply_Now -->
<g id="edge17" class="edge">
<title>Internship-&gt;Apply_Now</title>
<path fill="none" stroke="#000000" d="M71.9735,-73.6621C84.9219,-63.9508 101.5419,-51.4858 115.7704,-40.8144"/>
<polygon fill="#000000" stroke="#000000" points="117.9257,-43.573 123.8257,-34.7729 113.7257,-37.9729 117.9257,-43.573"/>
</g>
<!-- Jobs&#45;&gt;Apply_Now -->
<g id="edge18" class="edge">
<title>Jobs-&gt;Apply_Now</title>
<path fill="none" stroke="#000000" d="M146.1896,-71.8314C146.1896,-64.131 146.1896,-54.9743 146.1896,-46.4166"/>
<polygon fill="#000000" stroke="#000000" points="149.6897,-46.4132 146.1896,-36.4133 142.6897,-46.4133 149.6897,-46.4132"/>
</g>
</g>
</svg>